<?xml version="1.0" encoding="iso-8859-1"?>
<!DOCTYPE svg PUBLIC "-//W3C//DTD SVG 1.1//EN" "http://www.w3.org/Graphics/SVG/1.1/DTD/svg11.dtd">
<svg 
 version="1.1" xmlns="http://www.w3.org/2000/svg" xmlns:xlink="http://www.w3.org/1999/xlink" x="0px" y="0px" width="512px"
	 height="512px" viewBox="0 0 512 512" enable-background="new 0 0 512 512" xml:space="preserve"
><g id="1b1c9b208ed950244c86edd4d202f9cd"><g></g><path display="inline" d="M437.439,324.198c-2.571,3.28-5.458,12.213-5.292,16.377l10.787,63.522
		c4.757,28.056-1.539,54.066-17.729,73.235c-14.78,17.501-36.707,27.537-60.15,27.537c-15.108,0-30.324-4.011-45.209-11.919
		l-55.775-29.632c-0.962-0.323-3.89-1.017-8.07-1.017c-4.18,0-7.108,0.693-8.07,1.017l-55.771,29.627
		c-14.888,7.913-30.1,11.924-45.212,11.924c-23.448,0-45.37-10.036-60.151-27.537c-16.19-19.169-22.486-45.176-17.725-73.244
		l10.783-63.514c0.162-4.168-2.721-13.097-5.292-16.377l-45.349-44.682c-25.41-25.032-34.704-57.944-24.862-88.041
		c9.841-30.092,36.785-51.151,72.074-56.335L138.647,126c3.853-1.124,11.102-6.424,13.337-9.754l28.143-57.625
		C195.87,26.377,224.232,7.13,256,7.13s60.13,19.247,75.873,51.491l28.143,57.625c2.235,3.33,9.484,8.63,13.337,9.754l62.225,9.141
		c35.288,5.184,62.232,26.243,72.074,56.335c9.841,30.097,0.547,63.009-24.862,88.045L437.439,324.198z"></path></g></svg>